<svg width="168" height="27" viewBox="0 0 168 27" fill="none" xmlns="http://www.w3.org/2000/svg">
<path d="M12.9251 3.85958C13.225 2.9393 14.5269 2.9393 14.8267 3.85958L16.5778 9.23398C16.7119 9.64561 17.0957 9.92418 17.5286 9.92418H23.1894C24.1588 9.92418 24.5611 11.1652 23.7761 11.734L19.2012 15.0486C18.8498 15.3033 18.7027 15.7555 18.8371 16.1682L20.5857 21.5349C20.8857 22.4557 19.8325 23.2227 19.0482 22.6544L14.4626 19.3321C14.1126 19.0784 13.6392 19.0784 13.2892 19.3321L8.70366 22.6544C7.91941 23.2227 6.86612 22.4557 7.16614 21.5348L8.91471 16.1682C9.04917 15.7555 8.90209 15.3033 8.55063 15.0486L3.97575 11.734C3.19075 11.1652 3.59308 9.92418 4.56247 9.92418H10.2232C10.6562 9.92418 11.0399 9.64561 11.174 9.23398L12.9251 3.85958Z" fill="#070707"/>
<path d="M48.022 3.85958C48.3219 2.9393 49.6238 2.9393 49.9237 3.85958L51.6748 9.23398C51.8089 9.64561 52.1926 9.92418 52.6256 9.92418H58.2863C59.2557 9.92418 59.658 11.1652 58.873 11.734L54.2982 15.0486C53.9467 15.3033 53.7996 15.7555 53.9341 16.1682L55.6826 21.5349C55.9827 22.4557 54.9294 23.2227 54.1451 22.6544L49.5596 19.3321C49.2095 19.0784 48.7362 19.0784 48.3861 19.3321L43.8006 22.6544C43.0163 23.2227 41.963 22.4557 42.2631 21.5348L44.0116 16.1682C44.1461 15.7555 43.999 15.3033 43.6475 15.0486L39.0727 11.734C38.2877 11.1652 38.69 9.92418 39.6594 9.92418H45.3202C45.7531 9.92418 46.1368 9.64561 46.271 9.23398L48.022 3.85958Z" fill="#070707"/>
<path d="M83.1192 3.85958C83.4191 2.9393 84.721 2.9393 85.0208 3.85958L86.7719 9.23398C86.906 9.64561 87.2898 9.92418 87.7227 9.92418H93.3835C94.3529 9.92418 94.7552 11.1652 93.9702 11.734L89.3953 15.0486C89.0439 15.3033 88.8968 15.7555 89.0312 16.1682L90.7798 21.5349C91.0798 22.4557 90.0265 23.2227 89.2423 22.6544L84.6567 19.3321C84.3067 19.0784 83.8333 19.0784 83.4833 19.3321L78.8978 22.6544C78.1135 23.2227 77.0602 22.4557 77.3602 21.5348L79.1088 16.1682C79.2433 15.7555 79.0962 15.3033 78.7447 15.0486L74.1698 11.734C73.3848 11.1652 73.7872 9.92418 74.7566 9.92418H80.4173C80.8502 9.92418 81.234 9.64561 81.3681 9.23398L83.1192 3.85958Z" fill="#070707"/>
<path d="M118.216 3.85958C118.516 2.9393 119.818 2.9393 120.118 3.85958L121.869 9.23398C122.003 9.64561 122.387 9.92418 122.82 9.92418H128.481C129.45 9.92418 129.852 11.1652 129.067 11.734L124.492 15.0486C124.141 15.3033 123.994 15.7555 124.128 16.1682L125.877 21.5349C126.177 22.4557 125.124 23.2227 124.339 22.6544L119.754 19.3321C119.404 19.0784 118.931 19.0784 118.58 19.3321L113.995 22.6544C113.211 23.2227 112.157 22.4557 112.457 21.5348L114.206 16.1682C114.34 15.7555 114.193 15.3033 113.842 15.0486L109.267 11.734C108.482 11.1652 108.884 9.92418 109.854 9.92418H115.514C115.947 9.92418 116.331 9.64561 116.465 9.23398L118.216 3.85958Z" fill="#070707"/>
<path d="M153.314 3.85958C153.613 2.9393 154.915 2.9393 155.215 3.85958L156.966 9.23398C157.1 9.64561 157.484 9.92418 157.917 9.92418H163.578C164.547 9.92418 164.95 11.1652 164.165 11.734L159.59 15.0486C159.238 15.3033 159.091 15.7555 159.226 16.1682L160.974 21.5349C161.274 22.4557 160.221 23.2227 159.437 22.6544L154.851 19.3321C154.501 19.0784 154.028 19.0784 153.678 19.3321L149.092 22.6544C148.308 23.2227 147.255 22.4557 147.555 21.5348L149.303 16.1682C149.438 15.7555 149.291 15.3033 148.939 15.0486L144.364 11.734C143.579 11.1652 143.982 9.92418 144.951 9.92418H150.612C151.045 9.92418 151.428 9.64561 151.562 9.23398L153.314 3.85958Z" fill="#E5E5E5"/>
</svg>
